<?xml version="1.0" encoding="UTF-8" standalone="no"?>
<!-- Created with Inkscape (http://www.inkscape.org/) by Marsupilami -->
<svg
   xmlns:svg="http://www.w3.org/2000/svg"
   xmlns="http://www.w3.org/2000/svg"
   version="1.0"
   width="1024"
   height="303"
   viewBox="0 0 329.31125 97.516251"
   id="svg2257">
  <defs
     id="defs2259" />
  <g
     transform="translate(-204.885,-355.0825)"
     id="layer1">
    <path
       d="M 35.21875,1.03125 L 1.03125,70.46875 L 11.75,70.46875 L 16.84375,59.75 L 52.0625,59.75 L 48,50.53125 L 20.9375,50.53125 L 39.8125,10.71875 L 67.90625,70.46875 L 78.125,70.46875 L 44.40625,1.03125 L 35.21875,1.03125 z M 63.3125,1.03125 L 97.53125,70.46875 L 106.71875,70.46875 L 140.40625,1.03125 L 130.1875,1.03125 L 102.125,59.75 L 74.03125,1.03125 L 63.3125,1.03125 z M 159.8125,1.03125 L 126.09375,70.46875 L 136.3125,70.46875 L 141.4375,59.75 L 176.65625,59.75 L 172.0625,50.53125 L 146.03125,50.53125 L 164.40625,10.71875 L 192.46875,70.46875 L 203.1875,70.46875 L 169.5,1.03125 L 159.8125,1.03125 z M 188.90625,1.03125 L 222.59375,70.46875 L 209.34375,96.5 L 219.03125,96.5 L 266,1.03125 L 255.28125,1.03125 L 227.1875,59.75 L 199.125,1.03125 L 188.90625,1.03125 z M 284.90625,1.03125 L 251.1875,70.46875 L 261.90625,70.46875 L 267.03125,59.75 L 301.75,59.75 L 297.65625,50.53125 L 271.09375,50.53125 L 290,10.71875 L 318.09375,70.46875 L 328.28125,70.46875 L 294.59375,1.03125 L 284.90625,1.03125 z "
       transform="translate(204.885,355.0825)"
       style="fill:#ee2722;fill-opacity:1;stroke:#ee2722;stroke-width:2.04250002;stroke-linecap:square;stroke-linejoin:miter;stroke-miterlimit:10;stroke-dasharray:none;stroke-opacity:1"
       id="path20325" />
  </g>
</svg>
